<svg id="Layer_1" data-name="Layer 1" xmlns="http://www.w3.org/2000/svg" viewBox="0 0 24 24"><defs><style>.cls-1{fill:#fff;}</style></defs><path class="cls-1" d="M13,1.5H2a.49511.49511,0,0,0-.5.5V14.5A.49514.49514,0,0,0,2,15H13a.49514.49514,0,0,0,.5-.5V2A.49511.49511,0,0,0,13,1.5ZM8.5,14h-2V12.5h2Zm4,0h-3V12a.49511.49511,0,0,0-.5-.5H6a.49511.49511,0,0,0-.5.5v2h-3V2.5h10ZM6.5,3.5H4a.49511.49511,0,0,0-.5.5V6a.49514.49514,0,0,0,.5.5H6.5A.49514.49514,0,0,0,7,6V4A.49511.49511,0,0,0,6.5,3.5ZM6,5.5H4.5v-1H6Zm5-2H8.5A.49511.49511,0,0,0,8,4V6a.49514.49514,0,0,0,.5.5H11a.49514.49514,0,0,0,.5-.5V4A.49511.49511,0,0,0,11,3.5Zm-.5,2H9v-1h1.5Zm-4,2H4a.49511.49511,0,0,0-.5.5v2a.49514.49514,0,0,0,.5.5H6.5A.49514.49514,0,0,0,7,10V8A.49511.49511,0,0,0,6.5,7.5ZM6,9.5H4.5v-1H6Zm5-2H8.5A.49511.49511,0,0,0,8,8v2a.49514.49514,0,0,0,.5.5H11a.49514.49514,0,0,0,.5-.5V8A.49511.49511,0,0,0,11,7.5Zm-.5,2H9v-1h1.5Zm11.67,5.79-1.48-5.2A1.51828,1.51828,0,0,0,19.25,9H15a.49511.49511,0,0,0-.5.5V16H2a.49511.49511,0,0,0-.5.5V19A1.50226,1.50226,0,0,0,3,20.5h.5a2.5,2.5,0,0,0,5,0h7a2.5,2.5,0,0,0,5,0H21A1.50226,1.50226,0,0,0,22.5,19V17.62A8.30229,8.30229,0,0,0,22.17,15.29ZM20.2,12l1.01,3.56c.04.14.08.29.11.44H19.69a.39185.39185,0,0,1-.18-.04l-1.7-.67a.50222.50222,0,0,1-.31-.47V12ZM6,22a1.498,1.498,0,0,1-1.5-1.5,1.49444,1.49444,0,0,1,2.61-1,1.46807,1.46807,0,0,1,.39,1A1.498,1.498,0,0,1,6,22Zm12,0a1.498,1.498,0,0,1-1.5-1.5,1.5,1.5,0,0,1,3,0A1.498,1.498,0,0,1,18,22Zm3.5-3a.51273.51273,0,0,1-.5.5h-.71a2.498,2.498,0,0,0-4.58,0H8.29a2.498,2.498,0,0,0-4.58,0H3a.51273.51273,0,0,1-.5-.5V17H15a.49514.49514,0,0,0,.5-.5V10h3.75a.504.504,0,0,1,.48.36l.18.64H17a.49511.49511,0,0,0-.5.5v3.32A1.47847,1.47847,0,0,0,17.44,16.21l1.7.68005a1.49948,1.49948,0,0,0,.55.11h1.78c.02.2.03.41.03.62Z"/></svg>