<svg id="Layer_1" data-name="Layer 1" xmlns="http://www.w3.org/2000/svg" viewBox="0 0 24 24"><defs><style>.cls-1{fill:#fff;}</style></defs><path class="cls-1" d="M19.85,7.85a.48324.48324,0,0,1-.7,0l-1.5-1.5A.46889.46889,0,0,1,17.5,6V3.5a.5.5,0,0,1,1,0V5.79l1.35,1.36A.48334.48334,0,0,1,19.85,7.85Zm2.32,7.44a8.30229,8.30229,0,0,1,.33,2.33V19a1.49851,1.49851,0,0,1-.44,1.06A1.51621,1.51621,0,0,1,21,20.5h-.5a2.5,2.5,0,0,1-5,0h-7a2.5,2.5,0,0,1-5,0H3A1.50226,1.50226,0,0,1,1.5,19V7.5A.49511.49511,0,0,1,2,7H13.1A4.71576,4.71576,0,0,1,13,6a5,5,0,1,1,7.72,4.2ZM20.2,12H17.5v2.82a.50222.50222,0,0,0,.31.47l1.7.67a.39185.39185,0,0,0,.18.04h1.63c-.03-.15-.07-.3-.11-.44ZM14,6a3.65643,3.65643,0,0,0,.13,1H15a.49511.49511,0,0,1,.5.5V9h3.75a1.50308,1.50308,0,0,1,.94.34A3.99746,3.99746,0,1,0,14,6ZM2.5,16h12V8H2.5Zm5,4.5a1.49444,1.49444,0,0,0-2.61-1,1.46807,1.46807,0,0,0-.39,1,1.5,1.5,0,0,0,3,0Zm12,0a1.5,1.5,0,0,0-3,0,1.5,1.5,0,0,0,3,0Zm2-2.88c0-.21-.01-.42-.03-.62H19.69a1.49948,1.49948,0,0,1-.55-.11L17.44,16.21A1.47847,1.47847,0,0,1,16.5,14.82V11.5A.49511.49511,0,0,1,17,11h2.91l-.09-.34-.09-.3a.504.504,0,0,0-.48-.36H15.5v6.5a.49514.49514,0,0,1-.5.5H2.5v2a.51273.51273,0,0,0,.5.5h.71a2.498,2.498,0,0,1,4.58,0h7.42a2.498,2.498,0,0,1,4.58,0H21a.51273.51273,0,0,0,.5-.5ZM12,3H9A.5.5,0,0,0,9,4h3a.5.5,0,0,0,0-1Zm-.48,2H7A.5.5,0,0,0,7,6h4.52a.5.5,0,1,0,0-1Z"/></svg>