<svg id="Layer_1" data-name="Layer 1" xmlns="http://www.w3.org/2000/svg" viewBox="0 0 24 24"><defs><style>.cls-1{fill:#fff;}</style></defs><path class="cls-1" d="M13.32,12.29,7.82,7.62a.4866.4866,0,0,0-.64,0l-5.5,4.67a.46452.46452,0,0,0-.18.38V20a.49514.49514,0,0,0,.5.5H13a.49514.49514,0,0,0,.5-.5V12.67A.46452.46452,0,0,0,13.32,12.29ZM10.5,19.5h-2v-5h2Zm2,0h-1V14a.49511.49511,0,0,0-.5-.5H8a.49511.49511,0,0,0-.5.5v5.5h-5V12.9l5-4.24,5,4.24ZM22.3,4.6l-4-3a.51023.51023,0,0,0-.6,0l-4,3a.47941.47941,0,0,0-.2.4v5a.49514.49514,0,0,0,.5.5h8a.49514.49514,0,0,0,.5-.5V5A.47941.47941,0,0,0,22.3,4.6ZM18.5,9.5h-1v-2h1Zm3,0h-2V7a.49511.49511,0,0,0-.5-.5H17a.49511.49511,0,0,0-.5.5V9.5h-2V5.25L18,2.62l3.5,2.63ZM6,13.5H4a.49511.49511,0,0,0-.5.5v3a.49514.49514,0,0,0,.5.5H6a.49514.49514,0,0,0,.5-.5V14A.49511.49511,0,0,0,6,13.5Zm-.5,3h-1v-2h1Zm17,2.75a3.25635,3.25635,0,0,1-3.25,3.25H3a.5.5,0,0,1,0-1H19.25a2.2534,2.2534,0,0,0,2.25-2.25A2.25329,2.25329,0,0,0,19.25,17h-2a2.75,2.75,0,0,1,0-5.5H21a.5.5,0,0,1,0,1H17.25a1.75,1.75,0,0,0,0,3.5h2a3.24356,3.24356,0,0,1,3.25,3.25Z"/></svg>