<svg id="Layer_1" data-name="Layer 1" xmlns="http://www.w3.org/2000/svg" viewBox="0 0 24 24"><defs><style>.cls-1{fill:#fff;}</style></defs><path class="cls-1" d="M6.97,2.04A3.49663,3.49663,0,0,0,2.03,6.99L4.15,9.12a.50742.50742,0,0,0,.7,0L6.97,6.99A3.49449,3.49449,0,0,0,6.97,2.04Zm-.7,4.25L4.5,8.05,2.73,6.29a2.517,2.517,0,0,1,0-3.54,2.51077,2.51077,0,0,1,3.54,0A2.517,2.517,0,0,1,6.27,6.29ZM4.48,3a1.5,1.5,0,1,0,1.5,1.5A1.498,1.498,0,0,0,4.48,3Zm0,2a.5.5,0,0,1,0-1,.5.5,0,1,1,0,1ZM21.1,6.9a6.50538,6.50538,0,0,0-9.2,9.2l4.25,4.24a.48324.48324,0,0,0,.7,0L21.1,16.1a6.5184,6.5184,0,0,0,0-9.2ZM20.39,15.39,16.5,19.28l-3.89-3.89a5.51653,5.51653,0,0,1,0-7.78,5.50131,5.50131,0,0,1,7.78,7.78ZM16.48,7.98a3.5,3.5,0,1,0,3.5,3.5A3.50386,3.50386,0,0,0,16.48,7.98Zm0,6a2.5,2.5,0,1,1,2.5-2.5A2.50091,2.50091,0,0,1,16.48,13.98ZM17,22a.49514.49514,0,0,1-.5.5H16A11.729,11.729,0,0,1,4.6,13.31l-.59-2.7a.50218.50218,0,1,1,.98-.22l.59,2.71A10.71519,10.71519,0,0,0,16,21.5h.5A.49511.49511,0,0,1,17,22Z"/></svg>