<svg id="Layer_1" data-name="Layer 1" xmlns="http://www.w3.org/2000/svg" viewBox="0 0 24 24"><defs><style>.cls-1{fill:#fff;}</style></defs><path class="cls-1" d="M22,13H13a.49511.49511,0,0,0-.5.5v.86l-.85-.21a.50429.50429,0,0,1-.35-.33l-.24-.7c1.51-1.05,2.8-3.08,2.8-6.22C13.86,2.55,11.09,1,8.5,1c-.89,0-5.36.29-5.36,5.94,0,3.12,1.29,5.14,2.8,6.18l-.24.7a.50429.50429,0,0,1-.35.33l-3.47.87a.49287.49287,0,0,0-.38.48V22a.49514.49514,0,0,0,.5.5H22a.49514.49514,0,0,0,.5-.5V13.5A.49511.49511,0,0,0,22,13ZM4.14,6.94C4.14,2.36,7.48,2,8.5,2s4.36.35,4.36,4.9c0,3.15-1.37,4.84-2.69,5.6A3.51412,3.51412,0,0,1,8.5,13a3.51412,3.51412,0,0,1-1.67-.5C5.51,11.75,4.14,10.06,4.14,6.94Zm2.51,7.2.17-.52a3.90364,3.90364,0,0,0,3.36,0l.17.52a1.474,1.474,0,0,0,.82.89,4.53191,4.53191,0,0,1-5.34,0A1.474,1.474,0,0,0,6.65,14.14ZM12.5,21.5H2.5V15.89l2.14-.54h.01c0,.01.01.02.02.03l.2.17a5.55543,5.55543,0,0,0,7.26,0l.2-.17.02-.02.15.03Zm4-7.5h2v1h-2Zm5,7.5h-8V14h2v1.5a.49514.49514,0,0,0,.5.5h3a.49514.49514,0,0,0,.5-.5V14h2Zm-5-1.5a.49514.49514,0,0,1-.5.5H15a.5.5,0,0,1,0-1h1A.49511.49511,0,0,1,16.5,20Z"/></svg>