<svg id="Layer_1" data-name="Layer 1" xmlns="http://www.w3.org/2000/svg" viewBox="0 0 24 24"><defs><style>.cls-1{fill:#fff;}</style></defs><path class="cls-1" d="M19.14,3.52l-7-2a.44729.44729,0,0,0-.28,0L4.9,3.51c-.02,0-.03.01-.05.02a.50491.50491,0,0,0-.13.05A.00976.00976,0,0,1,4.71,3.59a.57262.57262,0,0,0-.11.11.1614.1614,0,0,0-.04.07.108.108,0,0,0-.03.07A.41449.41449,0,0,0,4.5,4V7a.5.5,0,0,0,1,0V4.66l2,.57V8.5a.47674.47674,0,0,0,.27.44,9.04542,9.04542,0,0,0,8.46,0,.47674.47674,0,0,0,.27-.44V5.23l2.64-.75a.5.5,0,0,0,0-.96ZM15.5,8.19a8.03358,8.03358,0,0,1-7,0V5.52l3.36.96a.49959.49959,0,0,0,.28,0l3.36-.96Zm1-4-1,.29-3.5,1-3.5-1-1-.29L6.82,4,12,2.52l3.72,1.06.73.21h.01V3.8l.72.2ZM22,11.5H11a.49511.49511,0,0,0-.5.5v1.5H2a.49511.49511,0,0,0-.5.5v8a.49514.49514,0,0,0,.5.5H22a.49514.49514,0,0,0,.5-.5V12A.49511.49511,0,0,0,22,11.5Zm-16,3H7v1H6Zm4.5,7h-8v-7H5V16a.49514.49514,0,0,0,.5.5h2A.49514.49514,0,0,0,8,16V14.5h2.5Zm5.5-9h1v1H16Zm5.5,9h-10v-9H15V14a.49514.49514,0,0,0,.5.5h2A.49514.49514,0,0,0,18,14V12.5h3.5ZM5.5,20a.49514.49514,0,0,1-.5.5H4a.5.5,0,0,1,0-1H5A.49511.49511,0,0,1,5.5,20Zm10,0a.49514.49514,0,0,1-.5.5H13a.5.5,0,0,1,0-1h2A.49511.49511,0,0,1,15.5,20Z"/></svg>