<svg id="Layer_1" data-name="Layer 1" xmlns="http://www.w3.org/2000/svg" viewBox="0 0 24 24"><defs><style>.cls-1{fill:#fff;}</style></defs><path class="cls-1" d="M22,13.5h-.5V10a.49511.49511,0,0,0-.5-.5h-.7L17.69,4.45l2.13-.88a.4784.4784,0,0,0,.27-.27.50029.50029,0,0,0,0-.38L19.71,2a1.54686,1.54686,0,0,0-.81-.82,1.5255,1.5255,0,0,0-1.15,0L2.97,7.31A1.513,1.513,0,0,0,2.15,8.12,1.48027,1.48027,0,0,0,2.16,9.27l.34.82V13.5H2a.49511.49511,0,0,0-.5.5v2a.49514.49514,0,0,0,.5.5H3.5V22a.49514.49514,0,0,0,.5.5H6a.49514.49514,0,0,0,.5-.5V16.5h11V22a.49514.49514,0,0,0,.5.5h2a.49514.49514,0,0,0,.5-.5V16.5H22a.49514.49514,0,0,0,.5-.5V14A.49511.49511,0,0,0,22,13.5Zm-1.5-3v3H3.5v-3Zm-1.32-1H5.51L16.77,4.83Zm-16.1-1a.50936.50936,0,0,1,.27-.27L18.13,2.11a.43293.43293,0,0,1,.19-.04.40544.40544,0,0,1,.19.04.45061.45061,0,0,1,.27.27H18.79l.19.46-2.1.88a.2095.2095,0,0,0-.11.04L3.27,9.35l-.19-.46A.5257.5257,0,0,1,3.08,8.5Zm2.42,13h-1v-5h1Zm14,0h-1v-5h1Zm2-6H2.5v-1h19Zm-7-3.5a.49514.49514,0,0,1-.5.5H10a.5.5,0,0,1,0-1h4A.49511.49511,0,0,1,14.5,12Z"/></svg>