<svg id="Layer_1" data-name="Layer 1" xmlns="http://www.w3.org/2000/svg" viewBox="0 0 24 24"><defs><style>.cls-1{fill:#fff;}</style></defs><path class="cls-1" d="M22.17,15.29l-1.48-5.2A1.51828,1.51828,0,0,0,19.25,9H15.5V7.5A.49511.49511,0,0,0,15,7H13V5a1.498,1.498,0,0,0-1.5-1.5h-1V3A1.498,1.498,0,0,0,9,1.5H8A1.498,1.498,0,0,0,6.5,3v.5h-1A1.498,1.498,0,0,0,4,5V7H2a.49511.49511,0,0,0-.5.5V19A1.50226,1.50226,0,0,0,3,20.5h.5a2.5,2.5,0,0,0,5,0h7a2.5,2.5,0,0,0,5,0H21a1.51621,1.51621,0,0,0,1.06-.44A1.49851,1.49851,0,0,0,22.5,19V17.62A8.30229,8.30229,0,0,0,22.17,15.29ZM20.2,12l1.01,3.56c.04.14.08.29.11.44H19.69a.39185.39185,0,0,1-.18-.04l-1.7-.67a.50222.50222,0,0,1-.31-.47V12ZM7.5,3A.49511.49511,0,0,1,8,2.5H9a.49511.49511,0,0,1,.5.5v.5h-2ZM5,5a.49511.49511,0,0,1,.5-.5h6A.49511.49511,0,0,1,12,5v.5H5ZM5,6.5h7v7a.49514.49514,0,0,1-.5.5h-6a.49514.49514,0,0,1-.5-.5ZM2.5,8H4v5.5A1.498,1.498,0,0,0,5.5,15h6A1.498,1.498,0,0,0,13,13.5V8h1.5v8H2.5ZM6,22a1.498,1.498,0,0,1-1.5-1.5,1.49444,1.49444,0,0,1,2.61-1,1.46807,1.46807,0,0,1,.39,1A1.498,1.498,0,0,1,6,22Zm12,0a1.498,1.498,0,0,1-1.5-1.5,1.5,1.5,0,0,1,3,0A1.498,1.498,0,0,1,18,22Zm3.5-3a.51273.51273,0,0,1-.5.5h-.71a2.498,2.498,0,0,0-4.58,0H8.29a2.498,2.498,0,0,0-4.58,0H3a.51273.51273,0,0,1-.5-.5V17H15a.49514.49514,0,0,0,.5-.5V10h3.75a.504.504,0,0,1,.48.36l.18.64H17a.49511.49511,0,0,0-.5.5v3.32A1.47847,1.47847,0,0,0,17.44,16.21l1.7.68005a1.49948,1.49948,0,0,0,.55.11h1.78c.02.2.03.41.03.62ZM7,8v4.5a.5.5,0,0,1-1,0V8A.5.5,0,0,1,7,8ZM9,8v4.5a.5.5,0,0,1-1,0V8A.5.5,0,0,1,9,8Zm2,0v4.5a.5.5,0,0,1-1,0V8a.5.5,0,0,1,1,0Z"/></svg>