<svg id="Layer_1" data-name="Layer 1" xmlns="http://www.w3.org/2000/svg" viewBox="0 0 32 32"><defs><style>.cls-1{fill:#e9f2e6;}.cls-2,.cls-4{fill:#fff;}.cls-3{fill:#4567ae;}.cls-4,.cls-5,.cls-6{fill-rule:evenodd;}.cls-5{fill:#8ad46b;}.cls-6{fill:#00a8ea;}</style></defs><circle class="cls-1" cx="20.50001" cy="11.5" r="7.5"/><path class="cls-1" d="M20.5,20.5a9,9,0,1,1,9-9A9.01016,9.01016,0,0,1,20.5,20.5Zm0-15a6,6,0,1,0,6,6A6.00657,6.00657,0,0,0,20.5,5.5Z"/><circle class="cls-2" cx="17.50001" cy="8.5" r="6"/><path class="cls-3" d="M17.5,14.875A6.375,6.375,0,1,1,23.875,8.5,6.382,6.382,0,0,1,17.5,14.875Zm0-12A5.625,5.625,0,1,0,23.125,8.5,5.63147,5.63147,0,0,0,17.5,2.875Z"/><path class="cls-4" d="M3,23.4881a1.99966,1.99966,0,0,1,1.425-1.9157c1.01-.3029,2.309-.6925,3.03-.909a1.00064,1.00064,0,0,0,.683-.7152L8.5,18.5h3s.214.8562.362,1.4482a1.00064,1.00064,0,0,0,.683.7152c.721.2165,2.02.6061,3.03.909A1.99968,1.99968,0,0,1,17,23.4881V26H3Z"/><path class="cls-3" d="M17,26.375H3A.3751.3751,0,0,1,2.625,26V23.48828a2.36077,2.36077,0,0,1,1.69238-2.27539l3.03028-.90869a.63073.63073,0,0,0,.42675-.44727l.36133-1.44775A.376.376,0,0,1,8.5,18.125h3a.376.376,0,0,1,.36426.28418l.36133,1.44775a.63175.63175,0,0,0,.42773.44776l3.0293.9082A2.36077,2.36077,0,0,1,17.375,23.48828V26A.3751.3751,0,0,1,17,26.375Zm-13.625-.75h13.25V23.48828a1.61457,1.61457,0,0,0-1.15723-1.55664L12.4375,21.023a1.3826,1.3826,0,0,1-.93848-.9834L11.207,18.875H8.793l-.292,1.16455a1.38158,1.38158,0,0,1-.9375.98291l-3.03125.90918A1.61457,1.61457,0,0,0,3.375,23.48828Z"/><path class="cls-4" d="M10,19.5c-1.517,0-4-1.53-4-5.4706C6,10.089,8.765,9.5,10,9.5s4,.5595,4,4.5S11.517,19.5,10,19.5Z"/><path class="cls-3" d="M10,19.875c-1.81641,0-4.375-1.81348-4.375-5.8457,0-4.668,3.64453-4.9043,4.375-4.9043s4.375.23486,4.375,4.875C14.375,18.05225,11.81641,19.875,10,19.875Zm0-10c-.85059,0-3.625.2998-3.625,4.1543,0,3.85009,2.44238,5.0957,3.625,5.0957S13.625,17.87207,13.625,14C13.625,10.17236,10.85059,9.875,10,9.875Z"/><path class="cls-3" d="M9.998,18.147a2.44693,2.44693,0,0,1-1.17676-.31738.37492.37492,0,0,1,.35742-.65918,1.61637,1.61637,0,0,0,1.64356-.00049.37489.37489,0,1,1,.35546.66016A2.46571,2.46571,0,0,1,9.998,18.147Z"/><path class="cls-3" d="M10,22.1626a5.43482,5.43482,0,0,1-3.2207-1.06006.37473.37473,0,1,1,.44238-.605,4.67945,4.67945,0,0,0,5.55566.00049.37483.37483,0,1,1,.44336.60449A5.43482,5.43482,0,0,1,10,22.1626Z"/><path class="cls-3" d="M17,9.875a.37531.37531,0,0,1-.26562-.10986l-1-1a.37531.37531,0,0,1,.53125-.53028L17,8.96973l1.73438-1.73487a.37531.37531,0,0,1,.53125.53028l-2,2A.37535.37535,0,0,1,17,9.875Z"/><path class="cls-5" d="M6,14c.014-3.914,2.768-4.5,4-4.5,1.235,0,4,.5595,4,4.5l-.211.1056a8.47171,8.47171,0,0,1-7.577.0002Z"/><path class="cls-3" d="M10,15.375a8.89141,8.89141,0,0,1-3.956-.93359l-.21192-.106a.3753.3753,0,0,1-.207-.33691C5.6416,9.35986,9.27246,9.125,10,9.125c.73047,0,4.375.23486,4.375,4.875a.37488.37488,0,0,1-.207.33545l-.21094.10547A8.89909,8.89909,0,0,1,10,15.375ZM6.37891,13.77051h.001A8.23176,8.23176,0,0,0,13.62109,13.77h0C13.5127,10.16064,10.833,9.875,10,9.875,9.16992,9.875,6.501,10.16064,6.37891,13.77051Z"/><path class="cls-3" d="M14,14.375a.37486.37486,0,0,1-.0918-.01123l-.25976-.06543a15.09618,15.09618,0,0,0-7.29688,0l-.25976.06543a.37517.37517,0,0,1-.1836-.72754l.26172-.06543a15.83392,15.83392,0,0,1,7.66016,0l.26172.06543A.37514.37514,0,0,1,14,14.375Z"/><path class="cls-6" d="M4.161,21.6723A6.58008,6.58008,0,0,1,5,24.8865V26H3V23.4881A2.00046,2.00046,0,0,1,4.161,21.6723Z"/><path class="cls-3" d="M5,26.375H3A.3751.3751,0,0,1,2.625,26V23.48828A2.38114,2.38114,0,0,1,4.00391,21.332a.37352.37352,0,0,1,.48437.15723A6.9703,6.9703,0,0,1,5.375,24.88672V26A.3751.3751,0,0,1,5,26.375Zm-1.625-.75h1.25v-.73828a6.21621,6.21621,0,0,0-.61328-2.68848,1.6323,1.6323,0,0,0-.63672,1.29Z"/><path class="cls-6" d="M15.839,21.6723A6.58027,6.58027,0,0,0,15,24.8865V26h2V23.4881A2.00045,2.00045,0,0,0,15.839,21.6723Z"/><path class="cls-3" d="M17,26.375H15A.3751.3751,0,0,1,14.625,26V24.88672a6.9703,6.9703,0,0,1,.88672-3.39746.37275.37275,0,0,1,.48437-.15723A2.38114,2.38114,0,0,1,17.375,23.48828V26A.3751.3751,0,0,1,17,26.375Zm-1.625-.75h1.25V23.48828a1.6323,1.6323,0,0,0-.63672-1.29,6.21621,6.21621,0,0,0-.61328,2.68848Z"/><path class="cls-4" d="M15,26.4881a1.99966,1.99966,0,0,1,1.425-1.9157c1.01-.3029,2.309-.6925,3.03-.909a1.00064,1.00064,0,0,0,.683-.7152L20.5,21.5h3s.214.8562.362,1.4482a1.00064,1.00064,0,0,0,.683.7152c.721.2165,2.02.6061,3.03.909A1.99968,1.99968,0,0,1,29,26.4881V29H15Z"/><path class="cls-3" d="M29,29.375H15A.3751.3751,0,0,1,14.625,29V26.48828a2.36077,2.36077,0,0,1,1.69238-2.27539l3.03028-.90869a.63073.63073,0,0,0,.42675-.44727l.36133-1.44775A.376.376,0,0,1,20.5,21.125h3a.376.376,0,0,1,.36426.28418l.36133,1.44775a.63175.63175,0,0,0,.42773.44776l3.0293.9082A2.36077,2.36077,0,0,1,29.375,26.48828V29A.3751.3751,0,0,1,29,29.375Zm-13.625-.75h13.25V26.48828a1.61457,1.61457,0,0,0-1.15723-1.55664L24.4375,24.023a1.3826,1.3826,0,0,1-.93848-.9834L23.207,21.875H20.793l-.292,1.16455a1.38158,1.38158,0,0,1-.9375.98291l-3.03125.90918A1.61457,1.61457,0,0,0,15.375,26.48828Z"/><path class="cls-4" d="M22,22.5c-1.517,0-4-1.53-4-5.4706C18,13.089,20.765,12.5,22,12.5s4,.5595,4,4.5S23.517,22.5,22,22.5Z"/><path class="cls-3" d="M22,22.875c-1.81641,0-4.375-1.81348-4.375-5.8457,0-4.668,3.64453-4.9043,4.375-4.9043s4.375.23486,4.375,4.875C26.375,21.05225,23.81641,22.875,22,22.875Zm0-10c-.85059,0-3.625.2998-3.625,4.1543,0,3.85009,2.44238,5.0957,3.625,5.0957S25.625,20.87207,25.625,17C25.625,13.17236,22.85059,12.875,22,12.875Z"/><path class="cls-3" d="M21.99805,21.147a2.44693,2.44693,0,0,1-1.17676-.31738.37492.37492,0,0,1,.35742-.65918,1.61637,1.61637,0,0,0,1.64356-.00049.37489.37489,0,1,1,.35546.66016A2.46571,2.46571,0,0,1,21.99805,21.147Z"/><path class="cls-3" d="M22,25.1626a5.43482,5.43482,0,0,1-3.2207-1.06006.37473.37473,0,1,1,.44238-.605,4.67945,4.67945,0,0,0,5.55566.00049.37483.37483,0,1,1,.44336.60449A5.43482,5.43482,0,0,1,22,25.1626Z"/><path class="cls-5" d="M18,17c.014-3.914,2.768-4.5,4-4.5,1.235,0,4,.5595,4,4.5l-.211.1056a8.47171,8.47171,0,0,1-7.577.0002Z"/><path class="cls-3" d="M22,18.375a8.89141,8.89141,0,0,1-3.95605-.93359l-.21192-.106a.3753.3753,0,0,1-.207-.33691C17.6416,12.35986,21.27246,12.125,22,12.125c.73047,0,4.375.23486,4.375,4.875a.37488.37488,0,0,1-.207.33545l-.21094.10547A8.89909,8.89909,0,0,1,22,18.375Zm-3.62109-1.60449h.001A8.23176,8.23176,0,0,0,25.62109,16.77h0C25.5127,13.16064,22.833,12.875,22,12.875,21.16992,12.875,18.501,13.16064,18.37891,16.77051Z"/><path class="cls-3" d="M26,17.375a.37486.37486,0,0,1-.0918-.01123l-.25976-.06543a15.09618,15.09618,0,0,0-7.29688,0l-.25976.06543a.37517.37517,0,0,1-.1836-.72754l.26172-.06543a15.83392,15.83392,0,0,1,7.66016,0l.26172.06543A.37514.37514,0,0,1,26,17.375Z"/><path class="cls-6" d="M16.161,24.6723A6.58008,6.58008,0,0,1,17,27.8865V29H15V26.4881A2.00046,2.00046,0,0,1,16.161,24.6723Z"/><path class="cls-3" d="M17,29.375H15A.3751.3751,0,0,1,14.625,29V26.48828A2.38114,2.38114,0,0,1,16.00391,24.332a.37465.37465,0,0,1,.48437.15723,6.9703,6.9703,0,0,1,.88672,3.39746V29A.3751.3751,0,0,1,17,29.375Zm-1.625-.75h1.25v-.73828a6.21621,6.21621,0,0,0-.61328-2.68848,1.6323,1.6323,0,0,0-.63672,1.29Z"/><path class="cls-6" d="M27.839,24.6723A6.58027,6.58027,0,0,0,27,27.8865V29h2V26.4881A2.00045,2.00045,0,0,0,27.839,24.6723Z"/><path class="cls-3" d="M29,29.375H27A.3751.3751,0,0,1,26.625,29V27.88672a6.9703,6.9703,0,0,1,.88672-3.39746.37322.37322,0,0,1,.48437-.15723A2.38114,2.38114,0,0,1,29.375,26.48828V29A.3751.3751,0,0,1,29,29.375Zm-1.625-.75h1.25V26.48828a1.6323,1.6323,0,0,0-.63672-1.29,6.21621,6.21621,0,0,0-.61328,2.68848Z"/></svg>