<svg id="Layer_1" data-name="Layer 1" xmlns="http://www.w3.org/2000/svg" viewBox="0 0 32 32"><defs><style>.cls-1{fill:#e9f2e6;}.cls-2{fill:#00a8ea;}.cls-2,.cls-4,.cls-5{fill-rule:evenodd;}.cls-3{fill:#4567ae;}.cls-4,.cls-6{fill:#fff;}.cls-5{fill:#8ad46b;}</style></defs><circle class="cls-1" cx="20.5" cy="11.5" r="7.5"/><path class="cls-1" d="M20.5,20.5a9,9,0,1,1,9-9A9.01016,9.01016,0,0,1,20.5,20.5Zm0-15a6,6,0,1,0,6,6A6.00657,6.00657,0,0,0,20.5,5.5Z"/><path class="cls-2" d="M23,6.6354a2.87,2.87,0,0,0-2.0453-2.749l-.0003-.0001a27.68231,27.68231,0,0,0-15.9088,0l-.0003.0001A2.87,2.87,0,0,0,3,6.6354v6.7234a12.99,12.99,0,0,0,9.9989,12.6409L13,26l.0011-.0003A12.99,12.99,0,0,0,23,13.3588Z"/><path class="cls-3" d="M12.96387,26.36816a.31329.31329,0,0,1-.05127-.00293A13.31808,13.31808,0,0,1,2.625,13.3584V6.63574a3.225,3.225,0,0,1,2.3125-3.1084,27.98588,27.98588,0,0,1,16.125,0,3.225,3.225,0,0,1,2.3125,3.1084V13.3584A13.31808,13.31808,0,0,1,13.0874,26.36523C13.06787,26.36523,13.00928,26.36816,12.96387,26.36816ZM13,3.09082A27.27217,27.27217,0,0,0,5.15332,4.24609,2.48,2.48,0,0,0,3.375,6.63574V13.3584A12.5699,12.5699,0,0,0,13,25.61426,12.5699,12.5699,0,0,0,22.625,13.3584V6.63574a2.48,2.48,0,0,0-1.77832-2.38965A27.27222,27.27222,0,0,0,13,3.09082Z"/><path class="cls-4" d="M21,6.9232a1.18816,1.18816,0,0,0-.8265-1.1317l-.0006-.0002a23.57308,23.57308,0,0,0-14.3458,0l-.0006.0002A1.18816,1.18816,0,0,0,5,6.9232v6.1956a11.4,11.4,0,0,0,7.9997,10.8811L13,24l.0003-.0001A11.4,11.4,0,0,0,21,13.1188Z"/><path class="cls-3" d="M13.00049,24.375a.39763.39763,0,0,1-.11182-.0166A11.72514,11.72514,0,0,1,4.625,13.11914V6.92285A1.5607,1.5607,0,0,1,5.71191,5.43359a23.856,23.856,0,0,1,14.5752,0A1.56034,1.56034,0,0,1,21.375,6.92285v6.19629A11.72486,11.72486,0,0,1,13.1123,24.3584.395.395,0,0,1,13.00049,24.375ZM13,5.042A23.17529,23.17529,0,0,0,5.94141,6.14844a.8112.8112,0,0,0-.56641.77441v6.19629a10.97577,10.97577,0,0,0,7.62451,10.48731A10.976,10.976,0,0,0,20.625,13.11914V6.92285a.8112.8112,0,0,0-.56641-.77441A23.173,23.173,0,0,0,13,5.042Z"/><path class="cls-3" d="M12,15.875a.37289.37289,0,0,1-.26514-.10937l-2-2a.37531.37531,0,0,1,.53028-.53125L12,14.96973l3.73486-3.73535a.37531.37531,0,1,1,.53028.53125l-4,4A.37289.37289,0,0,1,12,15.875Z"/><polygon class="cls-4" points="26.464 19.974 23 17.974 17.5 27.5 19.732 27.634 20.964 29.5 26.464 19.974"/><path class="cls-3" d="M20.96387,29.875a.37614.37614,0,0,1-.313-.168l-1.12842-1.71-2.04492-.123a.37476.37476,0,0,1-.30225-.56152l5.5-9.52637a.37414.37414,0,0,1,.22754-.1748.3678.3678,0,0,1,.28467.03711l3.46387,2a.37557.37557,0,0,1,.1372.51269l-5.5,9.52637a.37566.37566,0,0,1-.31347.1875Zm-2.83594-2.71289,1.62646.09766a.37608.37608,0,0,1,.29053.167l.89746,1.36035,5.00928-8.67578-2.81445-1.625Z"/><polygon class="cls-4" points="20.536 19.974 24 17.974 29.5 27.5 27.268 27.634 26.036 29.5 20.536 19.974"/><path class="cls-3" d="M26.03613,29.875H26.0249a.37566.37566,0,0,1-.31347-.1875l-5.5-9.52637a.37557.37557,0,0,1,.1372-.51269l3.46387-2a.36725.36725,0,0,1,.28467-.03711.37414.37414,0,0,1,.22754.1748l5.5,9.52637a.37476.37476,0,0,1-.30225.56152l-2.04492.123-1.12842,1.71A.37614.37614,0,0,1,26.03613,29.875Zm-4.98779-9.76367,5.00928,8.67578.89746-1.36035a.37608.37608,0,0,1,.29053-.167l1.62646-.09766-5.00928-8.67578Z"/><path class="cls-5" d="M23.325,14.6714a.25016.25016,0,0,1,.35,0c.2705.2651.7815.7658.9977.9776a.25033.25033,0,0,0,.2372.0636c.2932-.0754.9861-.2535,1.3529-.3478a.25.25,0,0,1,.303.175c.1018.3648.294,1.0539.3753,1.3455a.25014.25014,0,0,0,.1736.1736c.2916.0813.9807.2735,1.3455.3753a.25.25,0,0,1,.175.303c-.0943.3668-.2724,1.0597-.3478,1.3529a.25033.25033,0,0,0,.0636.2372c.2118.2162.7125.7272.9776.9977a.25016.25016,0,0,1,0,.35c-.2651.2705-.7658.7815-.9776.9977a.25033.25033,0,0,0-.0636.2372c.0754.2932.2535.9861.3478,1.3529a.25.25,0,0,1-.175.303c-.3648.1018-1.0539.294-1.3455.3753a.25014.25014,0,0,0-.1736.1736c-.0813.2916-.2735.9807-.3753,1.3455a.25.25,0,0,1-.303.175c-.3668-.0943-1.0597-.2724-1.3529-.3478a.25033.25033,0,0,0-.2372.0636c-.2162.2118-.7272.7125-.9977.9776a.25016.25016,0,0,1-.35,0c-.2705-.2651-.7815-.7658-.9977-.9776a.25033.25033,0,0,0-.2372-.0636c-.2932.0754-.9861.2535-1.3529.3478a.25.25,0,0,1-.303-.175c-.1018-.3648-.294-1.0539-.3753-1.3455a.25014.25014,0,0,0-.1736-.1736c-.2916-.0813-.9807-.2735-1.3455-.3753a.25.25,0,0,1-.175-.303c.0943-.3668.2724-1.0597.3478-1.3529a.25033.25033,0,0,0-.0636-.2372c-.2118-.2162-.7125-.7272-.9776-.9977a.25016.25016,0,0,1,0-.35c.2651-.2705.7658-.7815.9776-.9977a.25033.25033,0,0,0,.0636-.2372c-.0754-.2932-.2535-.9861-.3478-1.3529a.25.25,0,0,1,.175-.303c.3648-.1018,1.0539-.294,1.3455-.3753a.25014.25014,0,0,0,.1736-.1736c.0813-.2916.2735-.9807.3753-1.3455a.25.25,0,0,1,.303-.175c.3668.0943,1.0597.2724,1.3529.3478a.25033.25033,0,0,0,.2372-.0636C22.5435,15.4372,23.0545,14.9365,23.325,14.6714Z"/><path class="cls-3" d="M23.50049,26.77344a.62659.62659,0,0,1-.43848-.17774l-.94678-.92773-1.28515.33008a.62549.62549,0,0,1-.75733-.4375l-.35595-1.27637-1.27832-.35742a.62768.62768,0,0,1-.437-.75684l.33008-1.28515-.92773-.94727a.62624.62624,0,0,1,.00049-.875l.92724-.94727-.33008-1.28418a.62785.62785,0,0,1,.439-.75781l1.27637-.35742.356-1.27637a.63153.63153,0,0,1,.75879-.4375l1.28369.33008.94678-.92773a.62977.62977,0,0,1,.876,0l.94678.92773,1.28515-.33008a.62709.62709,0,0,1,.75733.4375l.356,1.27637,1.27832.35742a.62768.62768,0,0,1,.437.75684l-.33008,1.28515.92773.94727a.62624.62624,0,0,1-.00049.875l-.92724.94727.33008,1.28418a.62785.62785,0,0,1-.439.75781l-1.27637.35742-.35595,1.27637a.63213.63213,0,0,1-.75879.4375L24.88477,25.668l-.94776.92773A.617.617,0,0,1,23.50049,26.77344ZM22.1499,24.90527a.62954.62954,0,0,1,.438.17578l.91211.89356.91064-.8916a.62725.62725,0,0,1,.59131-.15918l1.23584.31738.3418-1.22754a.62148.62148,0,0,1,.43506-.43359l1.22705-.34278-.31738-1.23437a.62638.62638,0,0,1,.15869-.5918L28.9751,20.5l-.89209-.91113a.62754.62754,0,0,1-.15869-.59278l.31738-1.23339-1.22852-.34278a.62144.62144,0,0,1-.4331-.43164l-.34229-1.22949-1.23388.31738a.63111.63111,0,0,1-.5918-.15722L23.5,15.02539l-.91064.8916a.637.637,0,0,1-.59131.15918l-1.23584-.31738-.3418,1.22754a.62939.62939,0,0,1-.43506.43359l-1.22705.34278.31738,1.23437a.62638.62638,0,0,1-.15869.5918L18.0249,20.5l.89209.91113a.62754.62754,0,0,1,.15869.59278L18.7583,23.2373l1.22852.34278a.63007.63007,0,0,1,.43359.43359l.3418,1.22754,1.23388-.31738A.634.634,0,0,1,22.1499,24.90527Zm6.2085-1.70117-.001.001Zm-9.71875,0h0Zm9.71973-5.4082h0Zm-9.7168-.001-.001.001Zm4.9458-2.85547h0Zm-.26318-.26757h0Z"/><circle class="cls-6" cx="23.5" cy="20.5" r="3"/><path class="cls-3" d="M23.5,23.875A3.375,3.375,0,1,1,26.875,20.5,3.37869,3.37869,0,0,1,23.5,23.875Zm0-6A2.625,2.625,0,1,0,26.125,20.5,2.62818,2.62818,0,0,0,23.5,17.875Z"/></svg>