<svg id="Layer_1" data-name="Layer 1" xmlns="http://www.w3.org/2000/svg" viewBox="0 0 32 32"><defs><style>.cls-1{fill:#e9f2e6;}.cls-2{fill:#00a8ea;}.cls-3{fill:#4567ae;}.cls-4{fill:#fff;}.cls-5{fill:#8ad46b;}</style></defs><circle class="cls-1" cx="11.5" cy="11.5" r="7.5"/><path class="cls-1" d="M11.5,20.5a9,9,0,1,1,9-9A9.01016,9.01016,0,0,1,11.5,20.5Zm0-15a6,6,0,1,0,6,6A6.00657,6.00657,0,0,0,11.5,5.5Z"/><rect class="cls-2" x="3" y="13" width="2" height="2"/><path class="cls-3" d="M5,15.375H3A.3751.3751,0,0,1,2.625,15V13A.3751.3751,0,0,1,3,12.625H5A.3751.3751,0,0,1,5.375,13v2A.3751.3751,0,0,1,5,15.375Zm-1.625-.75h1.25v-1.25H3.375Z"/><rect class="cls-2" x="7" y="12" width="2" height="3"/><path class="cls-3" d="M9,15.375H7A.3751.3751,0,0,1,6.625,15V12A.3751.3751,0,0,1,7,11.625H9A.3751.3751,0,0,1,9.375,12v3A.3751.3751,0,0,1,9,15.375Zm-1.625-.75h1.25v-2.25H7.375Z"/><rect class="cls-2" x="11" y="11" width="2" height="6"/><path class="cls-3" d="M13,17.375H11A.3751.3751,0,0,1,10.625,17V11A.3751.3751,0,0,1,11,10.625h2a.3751.3751,0,0,1,.375.375v6A.3751.3751,0,0,1,13,17.375Zm-1.625-.75h1.25v-5.25h-1.25Z"/><rect class="cls-2" x="15" y="10" width="2" height="7"/><path class="cls-3" d="M17,17.375H15A.3751.3751,0,0,1,14.625,17V10A.3751.3751,0,0,1,15,9.625h2a.3751.3751,0,0,1,.375.375v7A.3751.3751,0,0,1,17,17.375Zm-1.625-.75h1.25v-6.25h-1.25Z"/><rect class="cls-2" x="19.3281" y="8" width="2" height="3"/><path class="cls-3" d="M21.32813,11.375h-2a.37509.37509,0,0,1-.375-.375V8a.37509.37509,0,0,1,.375-.375h2a.3751.3751,0,0,1,.375.375v3A.3751.3751,0,0,1,21.32813,11.375Zm-1.625-.75h1.25V8.375h-1.25Z"/><rect class="cls-2" x="23" y="6" width="2" height="5"/><path class="cls-3" d="M25,11.375H23A.3751.3751,0,0,1,22.625,11V6A.3751.3751,0,0,1,23,5.625h2A.3751.3751,0,0,1,25.375,6v5A.3751.3751,0,0,1,25,11.375Zm-1.625-.75h1.25V6.375h-1.25Z"/><rect class="cls-2" x="27" y="3" width="2" height="8"/><path class="cls-3" d="M29,11.375H27A.3751.3751,0,0,1,26.625,11V3A.3751.3751,0,0,1,27,2.625h2A.3751.3751,0,0,1,29.375,3v8A.3751.3751,0,0,1,29,11.375Zm-1.625-.75h1.25V3.375h-1.25Z"/><rect class="cls-4" x="9" y="19" width="10" height="10"/><path class="cls-3" d="M19,29.375H9A.3751.3751,0,0,1,8.625,29V19A.3751.3751,0,0,1,9,18.625H19a.3751.3751,0,0,1,.375.375V29A.3751.3751,0,0,1,19,29.375Zm-9.625-.75h9.25v-9.25H9.375Z"/><rect class="cls-4" x="19" y="21" width="10" height="8"/><path class="cls-3" d="M29,29.375H19A.3751.3751,0,0,1,18.625,29V21A.3751.3751,0,0,1,19,20.625H29a.3751.3751,0,0,1,.375.375v8A.3751.3751,0,0,1,29,29.375Zm-9.625-.75h9.25v-7.25h-9.25Z"/><rect class="cls-4" x="19" y="13" width="10" height="8"/><path class="cls-3" d="M29,21.375H19A.3751.3751,0,0,1,18.625,21V13A.3751.3751,0,0,1,19,12.625H29a.3751.3751,0,0,1,.375.375v8A.3751.3751,0,0,1,29,21.375Zm-9.625-.75h9.25v-7.25h-9.25Z"/><rect class="cls-5" x="23" y="13" width="2" height="2"/><path class="cls-3" d="M25,15.375H23A.3751.3751,0,0,1,22.625,15V13A.3751.3751,0,0,1,23,12.625h2a.3751.3751,0,0,1,.375.375v2A.3751.3751,0,0,1,25,15.375Zm-1.625-.75h1.25v-1.25h-1.25Z"/><rect class="cls-5" x="23" y="21" width="2" height="2"/><path class="cls-3" d="M25,23.375H23A.3751.3751,0,0,1,22.625,23V21A.3751.3751,0,0,1,23,20.625h2a.3751.3751,0,0,1,.375.375v2A.3751.3751,0,0,1,25,23.375Zm-1.625-.75h1.25v-1.25h-1.25Z"/><rect class="cls-4" x="3" y="23" width="6" height="6"/><path class="cls-3" d="M9,29.375H3A.3751.3751,0,0,1,2.625,29V23A.3751.3751,0,0,1,3,22.625H9A.3751.3751,0,0,1,9.375,23v6A.3751.3751,0,0,1,9,29.375Zm-5.625-.75h5.25v-5.25H3.375Z"/><rect class="cls-5" x="5" y="23" width="2" height="2"/><path class="cls-3" d="M7,25.375H5A.3751.3751,0,0,1,4.625,25V23A.3751.3751,0,0,1,5,22.625H7A.3751.3751,0,0,1,7.375,23v2A.3751.3751,0,0,1,7,25.375Zm-1.625-.75h1.25v-1.25H5.375Z"/><path class="cls-3" d="M21.5,27.875h-1a.375.375,0,0,1,0-.75h1a.375.375,0,0,1,0,.75Z"/><path class="cls-3" d="M21.5,19.875h-1a.375.375,0,0,1,0-.75h1a.375.375,0,0,1,0,.75Z"/><path class="cls-3" d="M5.5,27.875h-1a.375.375,0,0,1,0-.75h1a.375.375,0,0,1,0,.75Z"/><rect class="cls-4" x="3" y="17" width="6" height="6"/><path class="cls-3" d="M9,23.375H3A.3751.3751,0,0,1,2.625,23V17A.3751.3751,0,0,1,3,16.625H9A.3751.3751,0,0,1,9.375,17v6A.3751.3751,0,0,1,9,23.375Zm-5.625-.75h5.25v-5.25H3.375Z"/><rect class="cls-5" x="5" y="17" width="2" height="2"/><path class="cls-3" d="M7,19.375H5A.3751.3751,0,0,1,4.625,19V17A.3751.3751,0,0,1,5,16.625H7A.3751.3751,0,0,1,7.375,17v2A.3751.3751,0,0,1,7,19.375Zm-1.625-.75h1.25v-1.25H5.375Z"/><path class="cls-3" d="M5.5,21.875h-1a.375.375,0,0,1,0-.75h1a.375.375,0,0,1,0,.75Z"/><rect class="cls-5" x="12.5" y="19" width="3" height="2"/><path class="cls-3" d="M15.5,21.375h-3A.3751.3751,0,0,1,12.125,21V19a.3751.3751,0,0,1,.375-.375h3a.3751.3751,0,0,1,.375.375v2A.3751.3751,0,0,1,15.5,21.375Zm-2.625-.75h2.25v-1.25h-2.25Z"/><path class="cls-3" d="M11.5,27.875h-1a.375.375,0,0,1,0-.75h1a.375.375,0,0,1,0,.75Z"/></svg>