<svg id="Layer_1" data-name="Layer 1" xmlns="http://www.w3.org/2000/svg" viewBox="0 0 32 32"><defs><style>.cls-1{fill:#e9f2e6;}.cls-2{fill:#4567ae;}.cls-3,.cls-4{fill:#fff;}.cls-3,.cls-5{fill-rule:evenodd;}.cls-5{fill:#8ad46b;}.cls-6{fill:#00a8ea;}</style></defs><circle class="cls-1" cx="20.5" cy="11.5" r="7.5"/><path class="cls-1" d="M20.5,20.5a9,9,0,1,1,9-9A9.01016,9.01016,0,0,1,20.5,20.5Zm0-15a6,6,0,1,0,6,6A6.00657,6.00657,0,0,0,20.5,5.5Z"/><path class="cls-2" d="M16,28.875A12.875,12.875,0,1,1,28.875,16,12.8895,12.8895,0,0,1,16,28.875Zm0-25A12.125,12.125,0,1,0,28.125,16,12.139,12.139,0,0,0,16,3.875Z"/><path class="cls-2" d="M16,27.875a.3751.3751,0,0,1-.375-.375V22a.375.375,0,0,1,.75,0v5.5A.3751.3751,0,0,1,16,27.875Z"/><path class="cls-2" d="M16,9.375A.3751.3751,0,0,1,15.625,9V4.5a.375.375,0,0,1,.75,0V9A.3751.3751,0,0,1,16,9.375Z"/><path class="cls-2" d="M11.60889,11.9834a.37284.37284,0,0,1-.26514-.10938L7.603,8.13379a.3753.3753,0,1,1,.53027-.53125L11.874,11.34277a.375.375,0,0,1-.26513.64063Z"/><path class="cls-2" d="M24.13184,24.50684a.37286.37286,0,0,1-.26514-.10938L20.856,21.38672a.3753.3753,0,0,1,.53027-.53125L24.397,23.86621a.375.375,0,0,1-.26513.64063Z"/><path class="cls-2" d="M11.354,16.375H4.5a.375.375,0,0,1,0-.75h6.854a.375.375,0,0,1,0,.75Z"/><path class="cls-2" d="M27.5,16.375H20.646a.375.375,0,0,1,0-.75H27.5a.375.375,0,0,1,0,.75Z"/><path class="cls-2" d="M7.86816,24.50684a.375.375,0,0,1-.26513-.64063l3.01074-3.01074a.3753.3753,0,0,1,.53027.53125L8.1333,24.39746A.37286.37286,0,0,1,7.86816,24.50684Z"/><path class="cls-2" d="M20.39111,11.9834a.375.375,0,0,1-.26513-.64063L23.8667,7.60254a.3753.3753,0,1,1,.53027.53125L20.65625,11.874A.37284.37284,0,0,1,20.39111,11.9834Z"/><path class="cls-3" d="M11.4,15.9606a5,5,0,1,1,9.2,0q.1185.10065.228.211A3.99662,3.99662,0,0,1,22,19a2.99994,2.99994,0,0,1-3,3H13a2.99994,2.99994,0,0,1-3-3,3.99662,3.99662,0,0,1,1.172-2.8284Q11.2815,16.06135,11.4,15.9606Z"/><path class="cls-2" d="M19,22.375H13A3.37869,3.37869,0,0,1,9.625,19a4.3448,4.3448,0,0,1,1.28174-3.09375c.01611-.01562.03222-.03223.04883-.04785A5.3272,5.3272,0,0,1,10.625,14a5.375,5.375,0,0,1,10.75,0,5.3272,5.3272,0,0,1-.33057,1.8584l.05078.0498A4.34318,4.34318,0,0,1,22.375,19,3.37869,3.37869,0,0,1,19,22.375Zm-3-13a4.62643,4.62643,0,0,0-4.25537,6.43848.37487.37487,0,0,1-.10352.43457,2.70369,2.70369,0,0,0-.20215.1875A3.59713,3.59713,0,0,0,10.375,19,2.62818,2.62818,0,0,0,13,21.625h6A2.62818,2.62818,0,0,0,21.625,19a3.5955,3.5955,0,0,0-1.062-2.5625,2.728,2.728,0,0,0-.2041-.18945.37487.37487,0,0,1-.10352-.43457A4.62643,4.62643,0,0,0,16,9.375Z"/><circle class="cls-4" cx="16" cy="14" r="3"/><path class="cls-2" d="M16,17.375A3.375,3.375,0,1,1,19.375,14,3.37869,3.37869,0,0,1,16,17.375Zm0-6A2.625,2.625,0,1,0,18.625,14,2.62818,2.62818,0,0,0,16,11.375Z"/><path class="cls-5" d="M20,19a2.00039,2.00039,0,0,0-2-2H14a2.00039,2.00039,0,0,0-2,2,1.00017,1.00017,0,0,0,1,1h6A1.00017,1.00017,0,0,0,20,19Z"/><path class="cls-2" d="M19,20.375H13A1.37671,1.37671,0,0,1,11.625,19,2.37477,2.37477,0,0,1,14,16.625h4A2.37477,2.37477,0,0,1,20.375,19,1.37671,1.37671,0,0,1,19,20.375Zm-5-3A1.62624,1.62624,0,0,0,12.375,19a.62557.62557,0,0,0,.625.625h6A.62557.62557,0,0,0,19.625,19,1.62624,1.62624,0,0,0,18,17.375Z"/><circle class="cls-6" cx="16" cy="28.5" r="1.5"/><path class="cls-2" d="M16,30.375A1.875,1.875,0,1,1,17.875,28.5,1.87705,1.87705,0,0,1,16,30.375Zm0-3A1.125,1.125,0,1,0,17.125,28.5,1.12654,1.12654,0,0,0,16,27.375Z"/><circle class="cls-6" cx="7.1615" cy="24.83885" r="1.49988"/><path class="cls-2" d="M7.16113,26.71387A1.87514,1.87514,0,0,1,5.83594,23.5127a1.92221,1.92221,0,0,1,2.65136,0,1.875,1.875,0,0,1-1.32617,3.20117Zm0-3a1.12453,1.12453,0,0,0-.79492,1.91992,1.15124,1.15124,0,0,0,1.59082,0,1.125,1.125,0,0,0-.7959-1.91992Z"/><circle class="cls-6" cx="3.5" cy="16" r="1.5"/><path class="cls-2" d="M3.5,17.875A1.875,1.875,0,1,1,5.375,16,1.87705,1.87705,0,0,1,3.5,17.875Zm0-3A1.125,1.125,0,1,0,4.625,16,1.12654,1.12654,0,0,0,3.5,14.875Z"/><circle class="cls-6" cx="7.1615" cy="7.16115" r="1.49988"/><path class="cls-2" d="M7.16113,9.03613A1.87514,1.87514,0,0,1,5.83594,5.835a1.92223,1.92223,0,0,1,2.65136,0A1.875,1.875,0,0,1,7.16113,9.03613Zm0-3a1.12453,1.12453,0,0,0-.79492,1.91992l.00049.001a1.15253,1.15253,0,0,0,1.59033-.001,1.125,1.125,0,0,0-.7959-1.91992Z"/><circle class="cls-6" cx="16" cy="3.5" r="1.5"/><path class="cls-2" d="M16,5.375A1.875,1.875,0,1,1,17.875,3.5,1.87705,1.87705,0,0,1,16,5.375Zm0-3A1.125,1.125,0,1,0,17.125,3.5,1.12654,1.12654,0,0,0,16,2.375Z"/><circle class="cls-6" cx="24.8385" cy="7.16115" r="1.49988"/><path class="cls-2" d="M24.83887,9.03613A1.875,1.875,0,0,1,23.5127,5.835a1.92092,1.92092,0,0,1,2.65185.001,1.87475,1.87475,0,0,1-1.32568,3.20019Zm0-3a1.125,1.125,0,0,0-.7959,1.91992,1.15157,1.15157,0,0,0,1.59033.001l.00049-.001a1.125,1.125,0,0,0-.79492-1.91992Z"/><circle class="cls-6" cx="28.5" cy="16" r="1.5"/><path class="cls-2" d="M28.5,17.875A1.875,1.875,0,1,1,30.375,16,1.87705,1.87705,0,0,1,28.5,17.875Zm0-3A1.125,1.125,0,1,0,29.625,16,1.12654,1.12654,0,0,0,28.5,14.875Z"/><circle class="cls-6" cx="24.8385" cy="24.83885" r="1.49988"/><path class="cls-2" d="M24.83887,26.71387A1.875,1.875,0,0,1,23.5127,23.5127a1.92092,1.92092,0,0,1,2.65185.001,1.87476,1.87476,0,0,1-1.32568,3.2002Zm0-3a1.125,1.125,0,0,0-.7959,1.91992,1.15159,1.15159,0,0,0,1.59033.001,1.12525,1.12525,0,0,0-.79443-1.9209Z"/></svg>